# xmcd CD database file
#
# Track frame offsets:
#	150
#	8000
#	15317
#	22587
#	30845
#	39727
#	48717
#	56242
#	63595
#	70590
#	79297
#	86790
#	94395
#	102105
#	109252
#	117827
#	126330
#	135595
#	141265
#	149557
#	156922
#	165595
#	173512
#	183700
#	198707
#
# Disc length: 2962 seconds
#
# Revision: 10
# Processed by: cddbd v1.5.2PL0 Copyright (c) Steve Scherf et al.
# Submitted via: CDex 1.70beta2
#
DISCID=5d0b9019
DTITLE=Konami - Pop’n Music 7 AC CS Pop’n Music 5 (Disc2)
DYEAR=2002
DGENRE=Game
TTITLE0=Bitter Sweet Samba
TTITLE1=ウルトラセブンの歌
TTITLE2=ラムのラブソング
TTITLE3=Project A
TTITLE4=薔薇は美しく散る
TTITLE5=宇宙戦艦ヤマト
TTITLE6=はじめてのチュウ
TTITLE7=ファーストステップ [Game Mix]
TTITLE8=Drivin' High
TTITLE9=Shooting Star
TTITLE10=Step In Space
TTITLE11=Harvest Moon
TTITLE12=Escapes From Your Love
TTITLE13=日曜大工
TTITLE14=それから
TTITLE15=Landmark
TTITLE16=Pink Rose
TTITLE17=Sweaty Guys
TTITLE18=セイシュンing
TTITLE19=熟れた花
TTITLE20=サナ・モレッテ・ネ・エンテ
TTITLE21=Slow Down
TTITLE22=ブルーベリーチーズ
TTITLE23=ファーストステップ [Long Ver．]
TTITLE24=Harvest Moon [Long Ver．]
EXTD=YEAR: 2002
EXTT0=
EXTT1=
EXTT2=
EXTT3=
EXTT4=
EXTT5=
EXTT6=
EXTT7=
EXTT8=
EXTT9=
EXTT10=
EXTT11=
EXTT12=
EXTT13=
EXTT14=
EXTT15=
EXTT16=
EXTT17=
EXTT18=
EXTT19=
EXTT20=
EXTT21=
EXTT22=
EXTT23=
EXTT24=
PLAYORDER=
